<?xml version="1.0" encoding="UTF-8"?>
<svg id="Layer_1" data-name="Layer 1" xmlns="http://www.w3.org/2000/svg" xmlns:xlink="http://www.w3.org/1999/xlink" viewBox="0 0 720 149.06">
  <defs>
    <style>
      .cls-1 {
        fill: none;
      }

      .cls-2 {
        clip-path: url(#clippath-1);
      }

      .cls-3 {
        clip-path: url(#clippath);
      }

      .cls-4 {
        fill: #e42b25;
      }
    </style>
    <clipPath id="clippath">
      <rect class="cls-1" width="720" height="149.06"/>
    </clipPath>
    <clipPath id="clippath-1">
      <rect class="cls-1" width="720" height="149.06"/>
    </clipPath>
  </defs>
  <g id="WAG_BrandRed_RGB">
    <g class="cls-3">
      <g class="cls-2">
        <path class="cls-4" d="M683.81,87.89c13.57-17.03-4.21-41.94,15-48.69-.44-4.79-4.93-7.65-10.66-7.65-5.16,0-10.68,2.82-14.22,7.38-20.24,26.11-41.25,46.23-53.27,46.23-4,0-5.41-1.84-5.41-4.98,0-9.74,12.23-24.02,21.64-33.98,1.19-1.3,1.73-2.6,1.73-3.79,0-2.92-3.35-4.87-7.47-4.87-10.34,0-31.8,16.36-47.66,31.3,5.68-10.73,11.98-19.27,11.98-23.89,0-4.87-5.09-6.28-10.93-6.17-22.64,30.09-51.68,52.32-70.33,52.32-4.83,0-8.05-1.63-10.07-4.04,23.74-9.7,43.57-25.91,43.57-37.87,0-7.41-6.21-10.71-14.92-10.71-22.36,0-50.64,23.79-52.04,47.6-21.54,7.75-37.59,6.37-42.55,1,23.74-9.7,43.57-25.91,43.57-37.87,0-7.41-6.22-10.71-14.92-10.71-22.55,0-51.13,24.2-52.08,48.22-10.79,3.32-23.05,4.77-23.05-4.12,0-14.67,21.97-26.71,21.97-36.47,0-2.71-1.19-4.98-3.25-6.17-7.01,3.61-17.42,6.6-25,6.6,1.95-6.06-.11-10.82-6.06-10.82-8.77,0-15.45,9.85-15.45,17.86,0,3.51,1.3,5.96,3.42,7.57-8.69,11.7-19.71,22.4-34.57,30.9,4.44-9.2,7.87-19.1,12.64-33.09,11.53-6.8,17.38-20.65-5.85-20.65-19.04,0-40.08,11.44-53.24,26.83-17.19,20.1-38.11,31.32-41.83,16.07,28.38-21.35,54.77-51.52,54.48-66.56-.1-5.44-3.34-9.13-10.95-9.13-18.02,0-60.03,40.96-63.6,77.41-30.08,16.11-26.67-9.27-17.48-22.62,13.36-6.86,22.61-22.01-2.31-22.01-36.16,0-65.93,33.63-65.43,55.14.15,6.37,3.35,11.62,10.11,11.63,7.75,0,20.19-5.37,33.3-18.91-2.52,12.97.48,18.91,11.11,18.91,8.64,0,19.72-4.35,31.42-11.08,1.94,6.05,6.99,11.08,16.92,11.08s22.99-8.11,32.93-18.58c-.51,2.32-.78,4.65-.78,6.96,0,7.52,4.04,11.61,10.03,11.62,6.75,0,16.86-5.36,27.99-15.86-1.75,4.78-3.75,9.64-6.11,14.38-23.95,8.46-48.65,17.61-48.65,34.19,0,7.03,5.83,11.22,13.19,11.22,17.95,0,40.01-21.44,53.79-42.36,17.07-7.65,36.93-22.14,52.26-42.86,3.99.1,8.41-.59,12.49-1.66-13.1,13.92-19.16,22.94-19.16,31.71,0,7.25,5.52,11.25,15.26,11.25,8.5,0,19.18-3.01,31.81-8.56,3.69,5.66,11.39,8.56,21.29,8.56,14.76,0,31.1-5.04,43.76-10.27,2.81,5.98,9.56,10.27,20.39,10.27,22.02,0,41.93-13.97,58.74-28.94-7.59,11.55-18.88,28.94-3.01,28.94,2.49,0,5.99-.4,8.87-1.36,11.25-20.56,25.87-33.87,40.48-42.64-12.01,14.93-16.99,26.3-16.99,33.65,0,6.82,4.22,10.34,11.14,10.34,21.09,0,45.87-21.68,67.21-46.5,1.09,9.48,6.87,19.65-3.24,28.48-15.27-.36-23.81,4.04-23.8,11.21.01,4.41,3.71,6.82,8.93,6.82s10.53-1.54,15.37-3.92c8.55,2.48,17.39,5.14,27.71,5.14,15.05,0,25.65-7.56,25.99-20.08-8.63,4.52-22.54,2.82-36.19,1.62M278.24,22.06c1.73,0,2.49.87,2.49,2.49,0,7.47-17.86,30.62-35.82,45.23,4.54-15.91,24.89-47.72,33.33-47.72M156.04,79.66c0-12.6,19.59-27.51,35.28-27.51,3.16,0,6.14.52,8.71,1.66-18.98,29.86-43.99,39.67-43.99,25.85M273.9,139.8c-1.76,0-2.88-.88-2.88-2.74,0-4.06,7.98-14.63,28.97-22.19-8.92,14.58-19.3,24.93-26.09,24.93M290.98,79.66c0-13.05,19.83-27.46,35.18-27.46,3.04,0,6.09.51,8.8,1.62-18.02,28.73-43.98,40.15-43.98,25.85M460.38,50.61c2.28,0,3.77.98,3.77,3.3,0,6.06-12.81,16.86-28.71,24.54,0-10.94,16.62-27.84,24.94-27.84M501.39,78.42c0-10.94,16.62-27.84,24.94-27.84,2.28,0,3.77.98,3.77,3.3,0,6.06-12.81,16.87-28.71,24.54"/>
        <path class="cls-4" d="M151.19,0c-6.75-.04-13.26,4.05-17.48,10.18,19.93,13.03-4.49,77.92-40.5,77.92-4.32,0-7.98-1.26-10.43-3.82,19.5-17.56,33.58-41.44,33.58-55.53,0-7.2-3.52-11.77-11.76-11.77-23.92,0-49.14,39.25-44.46,67.56-15.08,5.36-22.58-1.34-22.58-14.81,0-28.1,29.37-57.25,27.66-66.02C34.79,13.12,10.98-8.74,0,26.83c14.79-8.05,28.44,4.82,45.32-4.59-14.49,16.72-29.12,40.38-28.92,60.37.13,13.08,7.2,22.52,22.5,22.52,8.69,0,17.71-3.04,26.39-8.01,3.72,4.65,9.71,8.01,18.88,8.01,37.36,0,78.18-52.49,78.18-89.94C162.35,5.26,158.41.04,151.19,0M79.32,72.17c.32-20.24,14.61-41.5,21.86-41.5,2.14,0,2.6,1.39,2.6,2.87,0,6.92-10.28,25.43-24.46,38.63"/>
      </g>
    </g>
  </g>
</svg>